<svg width="16" height="17" viewBox="0 0 16 17" fill="none" xmlns="http://www.w3.org/2000/svg">
<path d="M12.8832 6.81213C12.8832 6.81213 12.5212 11.3021 12.3112 13.1935C12.2112 14.0968 11.6532 14.6261 10.7392 14.6428C8.99991 14.6741 7.25858 14.6761 5.51991 14.6395C4.64058 14.6215 4.09191 14.0855 3.99391 13.1981C3.78258 11.2901 3.42258 6.81213 3.42258 6.81213" stroke="#FF0000" stroke-linecap="round" stroke-linejoin="round"/>
<path d="M13.8055 4.65981H2.50012" stroke="#FF0000" stroke-linecap="round" stroke-linejoin="round"/>
<path d="M11.627 4.6598C11.1037 4.6598 10.653 4.2898 10.5504 3.77713L10.3884 2.96647C10.2884 2.59247 9.94971 2.3338 9.56371 2.3338H6.74171C6.35571 2.3338 6.01704 2.59247 5.91704 2.96647L5.75504 3.77713C5.65238 4.2898 5.20171 4.6598 4.67838 4.6598" stroke="#FF0000" stroke-linecap="round" stroke-linejoin="round"/>
</svg>
